<?xml version="1.0" standalone="no"?>
<!DOCTYPE svg PUBLIC "-//W3C//DTD SVG 20010904//EN"
 "http://www.w3.org/TR/2001/REC-SVG-20010904/DTD/svg10.dtd">
<svg version="1.0" xmlns="http://www.w3.org/2000/svg"
 width="240.000000pt" height="240.000000pt" viewBox="0 0 240.000000 240.000000"
 preserveAspectRatio="xMidYMid meet">
<metadata>
Created by potrace 1.11, written by Peter Selinger 2001-2013
</metadata>
<g transform="translate(0.000000,240.000000) scale(0.100000,-0.100000)"
fill="#000000" stroke="none">
<path d="M1045 2293 c-476 -61 -867 -339 -996 -710 -54 -155 -62 -350 -20
-506 24 -92 86 -222 138 -292 28 -37 38 -59 37 -85 -4 -114 -62 -309 -149
-496 -25 -53 -44 -98 -43 -100 3 -2 29 3 128 22 160 32 453 126 579 185 94 44
78 43 226 13 114 -23 487 -22 525 1 4 3 25 7 46 11 124 19 322 104 449 192
283 195 440 484 430 792 -2 63 -6 129 -9 145 -32 154 -120 321 -237 449 -153
167 -439 318 -686 362 -13 2 -35 7 -50 10 -33 7 -325 13 -368 7z m395 -217
c225 -49 406 -143 542 -282 103 -106 156 -194 193 -326 27 -93 27 -250 1 -341
-70 -249 -273 -446 -566 -551 -240 -87 -456 -94 -766 -26 -71 15 -83 15 -100
3 -64 -48 -375 -175 -391 -159 -3 2 2 26 10 53 30 94 40 157 41 258 l1 102
-53 68 c-94 122 -139 237 -148 380 -20 284 149 552 446 712 111 59 263 108
375 119 33 4 62 8 64 10 11 10 284 -6 351 -20z"/>
<path d="M1150 1825 l0 -75 50 0 50 0 0 75 0 75 -50 0 -50 0 0 -75z"/>
<path d="M943 1837 l-41 -20 31 -64 c17 -34 35 -63 40 -63 4 0 25 9 46 20 l39
19 -29 60 c-16 33 -33 62 -37 64 -4 3 -26 -5 -49 -16z"/>
<path d="M1386 1817 c-11 -23 -25 -53 -32 -67 -11 -24 -9 -26 33 -46 l44 -22
34 68 34 67 -45 21 c-24 12 -46 22 -47 22 -1 0 -11 -19 -21 -43z"/>
<path d="M745 1669 c-16 -23 -24 -43 -19 -48 5 -4 32 -24 60 -44 l52 -37 26
34 c14 19 26 39 26 44 0 8 -64 59 -106 85 -7 4 -23 -10 -39 -34z"/>
<path d="M1567 1669 c-31 -22 -57 -45 -57 -50 0 -6 12 -25 27 -44 l27 -34 58
41 c32 23 58 43 58 46 0 5 -51 82 -54 82 0 0 -27 -18 -59 -41z"/>
<path d="M1090 1629 c-126 -44 -191 -141 -186 -275 2 -62 8 -81 60 -185 46
-92 61 -133 70 -195 l11 -79 50 2 c28 1 58 2 69 2 17 1 18 7 13 74 -7 85 -33
169 -84 269 -50 97 -52 162 -8 208 95 100 280 29 262 -101 -3 -21 -21 -68 -40
-106 -52 -103 -74 -171 -83 -258 -3 -27 -6 -57 -8 -67 -3 -13 6 -17 43 -20 86
-6 101 -1 101 36 0 58 29 146 83 248 50 98 52 103 52 182 0 68 -5 89 -27 132
-68 129 -229 186 -378 133z"/>
<path d="M650 1400 l0 -50 75 0 c71 0 75 1 76 23 0 12 2 34 4 50 l4 27 -80 0
-79 0 0 -50z"/>
<path d="M1594 1428 c3 -13 6 -35 6 -50 l0 -28 75 0 75 0 0 50 0 50 -81 0
c-79 0 -81 -1 -75 -22z"/>
<path d="M742 1230 c-34 -16 -62 -32 -62 -35 0 -8 40 -85 43 -85 2 0 31 13 65
30 l61 29 -15 38 c-9 21 -19 41 -23 45 -4 4 -35 -6 -69 -22z"/>
<path d="M1585 1250 c-3 -5 -12 -26 -19 -47 l-14 -39 64 -26 64 -27 21 41 c11
22 17 44 12 49 -17 17 -122 58 -128 49z"/>
<path d="M1066 834 c-4 -10 -3 -21 2 -26 5 -5 67 -7 138 -6 121 3 129 4 129
23 0 19 -8 20 -131 23 -116 2 -132 1 -138 -14z"/>
<path d="M1122 725 c45 -31 100 -33 146 -5 17 11 32 22 32 25 0 3 -48 5 -107
5 l-108 0 37 -25z"/>
</g>
</svg>
